<?xml version="1.0" encoding="utf-8"?>
<!-- Generator: Adobe Illustrator 14.0.0, SVG Export Plug-In . SVG Version: 6.00 Build 43363)  -->
<!DOCTYPE svg PUBLIC "-//W3C//DTD SVG 1.1//EN" "http://www.w3.org/Graphics/SVG/1.1/DTD/svg11.dtd">
<svg version="1.1" id="Ebene_1" xmlns="http://www.w3.org/2000/svg" xmlns:xlink="http://www.w3.org/1999/xlink" x="0px" y="0px"
	 width="1792px" height="1792px" viewBox="0 0 1792 1792" enable-background="new 0 0 1792 1792" xml:space="preserve">
<path d="M756.5,1229.078c15.808-111.736,194.826-360.762,612.418-244.578l-0.418-627.489h-1002l1,871.776L756.5,1229.078z
	 M810.447,1364.895l-242.535-0.396l-0.328,241.074l-245.465-0.432l-69.869-82.211l0.15-1155.079l72.1-95.353l1064-0.666
	l65.945,96.019l1.931,782.492C1075.338,811.311,757.306,1177.347,810.447,1364.895z M1263.998,600.154H584.5v94.796h679.498V600.154
	z M1263.996,746.886H584.498v94.796h679.498V746.886z M812.5,1043.908c-99,0-224.589,0-224.589,0v94.796H732.5
	C732.5,1138.704,739.304,1090.339,812.5,1043.908z M508.9,748.284h-75.028v94.794H508.9V748.284z M510.4,599.609h-75.028v94.794
	H510.4V599.609z M511.313,1045.306h-75.028v94.794h75.028V1045.306z M512.813,896.631h-75.028v94.795h75.028V896.631z
	 M1263.998,445.625H584.5v94.794h679.498V445.625z M510.4,445.08h-75.028v94.794H510.4V445.08z M726.313,1481.037h-75.028v125
	h75.028V1481.037z M1098.5,895.908H587.911v94.796H855.5C855.5,990.704,916.322,925.322,1098.5,895.908z M1435.575,1421.765v-79.935
	c0-10.827-3.955-20.192-11.866-28.104s-17.276-11.866-28.102-11.866h-159.874v-159.874c0-10.825-3.957-20.19-11.866-28.102
	s-17.276-11.866-28.104-11.866h-79.935c-10.827,0-20.194,3.955-28.104,11.866c-7.911,7.911-11.866,17.276-11.866,28.102v159.874
	H915.986c-10.825,0-20.192,3.955-28.102,11.866c-7.911,7.911-11.866,17.276-11.866,28.104v79.935
	c0,10.827,3.955,20.194,11.866,28.104c7.909,7.911,17.276,11.866,28.102,11.866h159.874v159.874
	c0,10.825,3.955,20.192,11.866,28.102c7.909,7.911,17.276,11.866,28.104,11.866h79.935c10.827,0,20.194-3.955,28.104-11.866
	c7.909-7.909,11.866-17.276,11.866-28.102v-159.874h159.874c10.825,0,20.19-3.955,28.102-11.866
	C1431.62,1441.96,1435.575,1432.593,1435.575,1421.765z"/>
</svg>
