<?xml version="1.0" encoding="utf-8"?>
<!-- Generator: Adobe Illustrator 14.0.0, SVG Export Plug-In . SVG Version: 6.00 Build 43363)  -->
<!DOCTYPE svg PUBLIC "-//W3C//DTD SVG 1.1//EN" "http://www.w3.org/Graphics/SVG/1.1/DTD/svg11.dtd">
<svg version="1.1" id="Ebene_1" xmlns="http://www.w3.org/2000/svg" xmlns:xlink="http://www.w3.org/1999/xlink" x="0px" y="0px"
	 width="1792px" height="1792px" viewBox="0 0 1792 1792" enable-background="new 0 0 1792 1792" xml:space="preserve">
<path d="M756.5,1229.078c90.815-129.738,306.836-306.756,610.418-214.578l1.582-657.489h-1002l1,871.776L756.5,1229.078z
	 M810.447,1364.895l-242.535-0.396l-0.328,241.074l-245.465-0.432l-69.869-82.211l0.15-1155.079l72.1-95.353l1064-0.666
	l65.945,96.019l1.931,771.492C1189.349,988.329,859.316,1168.346,810.447,1364.895z M1263.998,600.154H584.5v94.796h679.498V600.154
	z M1263.996,746.886H584.498v94.796h679.498V746.886z M828.5,1043.908c-99,0-240.589,0-240.589,0v94.796H728.5
	C728.5,1138.704,747.5,1082.5,828.5,1043.908z M508.9,748.284h-75.028v94.794H508.9V748.284z M510.4,599.609h-75.028v94.794H510.4
	V599.609z M511.313,1045.306h-75.028v94.794h75.028V1045.306z M512.813,896.631h-75.028v94.795h75.028V896.631z M1263.998,445.625
	H584.5v94.794h679.498V445.625z M510.4,445.08h-75.028v94.794H510.4V445.08z M726.313,1481.037h-75.028v125h75.028V1481.037z
	 M1252.356,895.908H587.911v94.796H903.5C903.5,990.704,1034.5,912.5,1252.356,895.908z M1584.866,1388.624
	c-44.931-69.761-101.242-121.934-168.934-156.519c18.031,30.743,27.048,63.998,27.048,99.765
	c0,54.686-19.437,101.464-58.308,140.335c-38.871,38.87-85.649,58.306-140.334,58.306c-54.687,0-101.465-19.436-140.335-58.306
	c-38.871-38.871-58.307-85.649-58.307-140.335c0-35.767,9.016-69.021,27.047-99.765c-67.692,34.585-124.003,86.758-168.934,156.519
	c39.313,60.599,88.604,108.854,147.872,144.769c59.268,35.916,123.485,53.873,192.656,53.873c69.17,0,133.388-17.957,192.655-53.873
	C1496.261,1497.478,1545.552,1449.222,1584.866,1388.624z M1265.622,1218.36c0-5.912-2.07-10.937-6.208-15.075
	c-4.139-4.139-9.164-6.207-15.075-6.207c-36.95,0-68.653,13.228-95.108,39.684c-26.456,26.456-39.685,58.158-39.685,95.108
	c0,5.912,2.069,10.937,6.207,15.075c4.139,4.139,9.164,6.207,15.076,6.207s10.938-2.068,15.075-6.207
	c4.139-4.139,6.208-9.163,6.208-15.075c0-25.421,9.016-47.148,27.047-65.18c18.031-18.03,39.757-27.047,65.18-27.047
	c5.911,0,10.937-2.069,15.075-6.208C1263.552,1229.298,1265.622,1224.272,1265.622,1218.36z M1641.621,1388.624
	c0,10.051-2.956,20.249-8.867,30.595c-41.385,67.988-97.03,122.451-166.938,163.392c-69.909,40.94-143.735,61.41-221.477,61.41
	c-77.743,0-151.568-20.543-221.478-61.632c-69.908-41.088-125.555-95.478-166.938-163.17c-5.912-10.346-8.868-20.544-8.868-30.595
	c0-10.05,2.956-20.247,8.868-30.594c41.383-67.691,97.029-122.082,166.938-163.17c69.909-41.088,143.734-61.632,221.478-61.632
	c77.741,0,151.567,20.544,221.477,61.632c69.908,41.088,125.554,95.479,166.938,163.17
	C1638.665,1368.377,1641.621,1378.574,1641.621,1388.624z"/>
</svg>
