<?xml version="1.0" encoding="utf-8"?>
<!-- Generator: Adobe Illustrator 14.0.0, SVG Export Plug-In . SVG Version: 6.00 Build 43363)  -->
<!DOCTYPE svg PUBLIC "-//W3C//DTD SVG 1.1//EN" "http://www.w3.org/Graphics/SVG/1.1/DTD/svg11.dtd">
<svg version="1.1" id="Ebene_1" xmlns="http://www.w3.org/2000/svg" xmlns:xlink="http://www.w3.org/1999/xlink" x="0px" y="0px"
	 width="1792px" height="1792px" viewBox="0 0 1792 1792" enable-background="new 0 0 1792 1792" xml:space="preserve">
<path d="M1370.472,1229.5l-1.972-872.489h-1002l1,871.776L1370.472,1229.5z M567.912,1364.5l-0.328,241.074l-245.465-0.432
	l-69.869-82.211l0.15-1155.079l72.1-95.353l1064-0.666l65.945,96.019l1.055,1237.721l-320.5-0.125V1365.5L567.912,1364.5z
	 M1263.998,600.154H584.5v94.796h679.498V600.154z M1263.996,746.886H584.498v94.796h679.498V746.886z M1266.408,1043.908H586.911
	v94.796h679.498V1043.908z M1266.41,897.176H586.913v94.795h679.498V897.176z M508.9,748.284h-75.028v94.794H508.9V748.284z
	 M510.4,599.609h-75.028v94.794H510.4V599.609z M511.313,1045.306h-75.028v94.794h75.028V1045.306z M512.813,896.631h-75.028v94.795
	h75.028V896.631z M1263.998,445.625H584.5v94.794h679.498V445.625z M510.4,445.08h-75.028v94.794H510.4V445.08z M726.313,1481.037
	h-75.028v125h75.028V1481.037z"/>
</svg>
