<?xml version="1.0" encoding="utf-8"?>
<!-- Generator: Adobe Illustrator 14.0.0, SVG Export Plug-In . SVG Version: 6.00 Build 43363)  -->
<!DOCTYPE svg PUBLIC "-//W3C//DTD SVG 1.1//EN" "http://www.w3.org/Graphics/SVG/1.1/DTD/svg11.dtd">
<svg version="1.1" id="Ebene_1" xmlns="http://www.w3.org/2000/svg" xmlns:xlink="http://www.w3.org/1999/xlink" x="0px" y="0px"
	 width="1792px" height="1792px" viewBox="0 0 1792 1792" enable-background="new 0 0 1792 1792" xml:space="preserve">
<path d="M799.5,1229.078l-1-246.578l570.418,2l-0.418-627.488h-1002l1,871.775L799.5,1229.078z M883.5,1085.5l0.946,279.396
	l-316.535-0.396l-0.327,241.073l-245.466-0.432l-69.868-82.211L252.4,367.851l72.101-95.354l1064-0.666l65.944,96.02l1.931,717.492
	L883.5,1085.5z M1263.998,600.154H584.5v94.796h679.498V600.154z M1263.995,746.886H584.497v94.796h679.498V746.886z
	 M732.5,1043.908H587.91v94.796H732.5V1043.908z M508.9,748.284h-75.028v94.794H508.9V748.284z M510.4,599.609h-75.028v94.794H510.4
	V599.609z M511.313,1045.306h-75.028v94.794h75.028V1045.306z M512.813,896.632h-75.028v94.795h75.028V896.632z M1263.998,445.625
	H584.5v94.795h679.498V445.625z M510.4,445.08h-75.028v94.794H510.4V445.08z M726.313,1481.037h-75.028v125h75.028V1481.037z
	 M732.5,895.5l-144.59,0.408v94.796H732.5V895.5z M1348.902,1608.187l57.966-54.913c7.85-7.437,11.925-16.737,12.227-27.909
	c0.304-11.171-3.262-20.68-10.699-28.53l-109.826-115.933l115.933-109.825c7.85-7.436,11.922-16.739,12.227-27.909
	c0.305-11.169-3.263-20.679-10.701-28.531l-54.912-57.965c-7.438-7.852-16.738-11.926-27.91-12.228
	c-11.171-0.302-20.679,3.263-28.53,10.7l-115.932,109.825l-109.824-115.93c-7.437-7.851-16.739-11.927-27.909-12.227
	c-11.172-0.303-20.68,3.263-28.53,10.7l-57.967,54.912c-7.851,7.438-11.927,16.742-12.227,27.911
	c-0.305,11.17,3.262,20.678,10.7,28.529l109.826,115.932l-115.933,109.826c-7.852,7.437-11.927,16.74-12.229,27.91
	c-0.304,11.169,3.264,20.68,10.701,28.53l54.912,57.966c7.438,7.852,16.739,11.925,27.91,12.228
	c11.169,0.302,20.68-3.263,28.53-10.701l115.933-109.826l109.826,115.933c7.437,7.85,16.737,11.925,27.91,12.227
	C1331.541,1619.192,1341.049,1615.626,1348.902,1608.187z"/>
</svg>
