<?xml version="1.0" encoding="utf-8"?>
<!-- Generator: Adobe Illustrator 14.0.0, SVG Export Plug-In . SVG Version: 6.00 Build 43363)  -->
<!DOCTYPE svg PUBLIC "-//W3C//DTD SVG 1.1//EN" "http://www.w3.org/Graphics/SVG/1.1/DTD/svg11.dtd">
<svg version="1.1" id="Ebene_1" xmlns="http://www.w3.org/2000/svg" xmlns:xlink="http://www.w3.org/1999/xlink" x="0px" y="0px"
	 width="1792px" height="1792px" viewBox="0 0 1792 1792" enable-background="new 0 0 1792 1792" xml:space="preserve">
<path d="M1373.567,990.086L1373.5,512.5h-1043l1,600l688.584,0.079l44.416,93.091l-742.382-2.096l-69.868-57.438L252.4,339.12
	L324.5,272.5l1064,3.028l65.944,63.592v199.861l-0.209,501.394L1373.567,990.086z M1060.582,933.089L1688.5,1252.5l-304,24l-24,304
	L1060.582,933.089z M1265.998,632.5H586.5v73h679.498V632.5z M1265.995,782.496H586.497v73h679.498V782.496z M962.353,935.588
	H585.84v73.001h376.513V935.588z M511.88,935.576h-75.028v73h75.028V935.576z M510.9,783.573h-75.028v73H510.9V783.573z
	 M512.4,632.08h-75.028v73H512.4V632.08z"/>
</svg>
