<?xml version="1.0" encoding="utf-8"?>
<!-- Generator: Adobe Illustrator 14.0.0, SVG Export Plug-In . SVG Version: 6.00 Build 43363)  -->
<!DOCTYPE svg PUBLIC "-//W3C//DTD SVG 1.1//EN" "http://www.w3.org/Graphics/SVG/1.1/DTD/svg11.dtd">
<svg version="1.1" id="Ebene_1" xmlns="http://www.w3.org/2000/svg" xmlns:xlink="http://www.w3.org/1999/xlink" x="0px" y="0px"
	 width="1792px" height="1792px" viewBox="0 0 1792 1792" enable-background="new 0 0 1792 1792" xml:space="preserve">
<path id="typo3-logo" d="M1321.843,1187.427c-23.534,6.932-42.278,9.319-66.79,9.319c-201.183,0-496.701-703.052-496.701-937.047
	c0-86.202,20.474-114.931,49.24-139.55c-246.275,28.714-541.825,119.046-636.265,233.976
	c-20.504,28.753-32.821,73.898-32.821,131.339c0,365.355,389.94,1194.486,664.984,1194.486
	C930.723,1679.95,1145.324,1470.612,1321.843,1187.427 M1193.416,95.5c254.497,0,509.034,41.056,509.034,184.721
	c0,291.453-184.704,644.465-279.129,644.465c-168.285,0-377.64-467.919-377.64-701.915
	C1045.682,116.051,1086.737,95.5,1193.416,95.5"/>
</svg>
